# xmcd
#
# Track frame offsets:
# 150
# 16049
# 31948
# 47847
# 63746
# 79645
# 95544
# 111443
# 127342
# 143241
# 159140
# 175039
# 190938
# 206837
# 222736
# 238635
# 254534
# 270433
# 286332
# 302231
# 318130
# 334029
#
# Disc length: 4665 seconds
#
#
# Revision: 0
# Processed by: cddbd v1.5PL3 Copyright (c) Steve Scherf et al.
# Submitted via: FreeRIP 2.40 
#
DISCID=44123716
DTITLE=Margarita Madness - Magarita Madness
DYEAR=2004
DGENRE=Country
TTITLE0=Margarita Madness
TTITLE1=Margarita Madness
TTITLE2=Margarita Madness
TTITLE3=Margarita Madness
TTITLE4=Margarita Madness
TTITLE5=Margarita Madness
TTITLE6=Margarita Madness
TTITLE7=Margarita Madness
TTITLE8=Margarita Madness
TTITLE9=Margarita Madness
TTITLE10=Margarita Madness
TTITLE11=Margarita Madness
TTITLE12=Margarita Madness
TTITLE13=Margarita Madness
TTITLE14=Margarita Madness
TTITLE15=Margarita Madness
TTITLE16=Margarita Madness
TTITLE17=Margarita Madness
TTITLE18=Margarita Madness
TTITLE19=Margarita Madness
TTITLE20=Margarita Madness
TTITLE21=Margarita Madness
EXTD=Margarita Madness
EXTT0=Margarita Madness Remix
EXTT1=Margarita Madness Remix
EXTT2=Margarita Madness Remix
EXTT3=Margarita Madness Remix
EXTT4=Margarita Madness Remix
EXTT5=Margarita Madness Remix
EXTT6=Margarita Madness Remix
EXTT7=Margarita Madness Remix
EXTT8=Margarita Madness Remix
EXTT9=Margarita Madness Remix
EXTT10=Margarita Madness Remix
EXTT11=Margarita Madness Remix
EXTT12=Margarita Madness Remix
EXTT13=Margarita Madness Remix
EXTT14=Margarita Madness Remix
EXTT15=Margarita Madness Remix
EXTT16=Margarita Madness Remix
EXTT17=Margarita Madness Remix
EXTT18=Margarita Madness Remix
EXTT19=Margarita Madness Remix
EXTT20=Margarita Madness Remix
EXTT21=Margarita Madness Remix
PLAYORDER=
